<svg width="18" height="18" viewBox="0 0 18 18" fill="none" xmlns="http://www.w3.org/2000/svg">
<g id="Frame 5596">
<g id="vuesax/outline/search-normal">
<g id="search-normal">
<path id="Vector" d="M8.25 15.5625C4.215 15.5625 0.9375 12.285 0.9375 8.25C0.9375 4.215 4.215 0.9375 8.25 0.9375C12.285 0.9375 15.5625 4.215 15.5625 8.25C15.5625 12.285 12.285 15.5625 8.25 15.5625ZM8.25 2.0625C4.8375 2.0625 2.0625 4.8375 2.0625 8.25C2.0625 11.6625 4.8375 14.4375 8.25 14.4375C11.6625 14.4375 14.4375 11.6625 14.4375 8.25C14.4375 4.8375 11.6625 2.0625 8.25 2.0625Z" fill="#B5B5B5"/>
<path id="Vector_2" d="M15.12 17.0925C15.06 17.0925 15 17.085 14.9475 17.0775C14.595 17.0325 13.9575 16.7925 13.5975 15.72C13.41 15.1575 13.4775 14.595 13.785 14.1675C14.0925 13.74 14.61 13.5 15.2025 13.5C15.9675 13.5 16.5675 13.7925 16.8375 14.31C17.1075 14.8275 17.0325 15.4875 16.605 16.125C16.0725 16.9275 15.495 17.0925 15.12 17.0925ZM14.67 15.3675C14.7975 15.7575 14.9775 15.9525 15.0975 15.9675C15.2175 15.9825 15.4425 15.84 15.675 15.5025C15.8925 15.18 15.9075 14.9475 15.855 14.8425C15.8025 14.7375 15.5925 14.625 15.2025 14.625C14.97 14.625 14.7975 14.7 14.7 14.8275C14.61 14.955 14.595 15.15 14.67 15.3675Z" fill="#B5B5B5"/>
</g>
</g>
</g>
</svg>
