<svg width="18" height="18" viewBox="0 0 18 18" fill="none" xmlns="http://www.w3.org/2000/svg">
<path fill-rule="evenodd" clip-rule="evenodd" d="M11.6467 2.46923C12.0805 2.46923 12.5136 2.53042 12.9255 2.6686C15.463 3.4936 16.3774 6.27798 15.6136 8.71173C15.1805 9.95542 14.4723 11.0905 13.5449 12.0179C12.2173 13.3035 10.7605 14.4448 9.19233 15.4279L9.02045 15.5317L8.8417 15.421C7.26802 14.4448 5.80295 13.3035 4.46302 12.011C3.54177 11.0836 2.83295 9.95542 2.39295 8.71173C1.61608 6.27798 2.53045 3.4936 5.09552 2.65417C5.29489 2.58542 5.50045 2.53729 5.7067 2.51048H5.7892C5.98239 2.48229 6.1742 2.46923 6.3667 2.46923H6.44233C6.87545 2.48229 7.29483 2.55792 7.70114 2.6961H7.7417C7.7692 2.70917 7.78983 2.7236 7.80358 2.73667C7.95552 2.78548 8.0992 2.84048 8.2367 2.9161L8.49795 3.03298C8.56108 3.06665 8.63194 3.11809 8.69318 3.16255C8.73198 3.19072 8.76691 3.21609 8.79358 3.23235C8.8048 3.23897 8.8162 3.24563 8.8277 3.25234C8.88665 3.28675 8.94805 3.3226 8.99983 3.36229C9.76364 2.7786 10.6911 2.46235 11.6467 2.46923ZM13.4755 7.41923C13.7574 7.41167 13.998 7.18548 14.0186 6.89604V6.81423C14.0392 5.85104 13.4555 4.97861 12.568 4.64173C12.2861 4.54479 11.9767 4.69673 11.8736 4.98548C11.7774 5.27423 11.9286 5.59048 12.2174 5.69292C12.658 5.85792 12.953 6.29173 12.953 6.77229V6.79361C12.9399 6.95104 12.9874 7.10298 13.0836 7.21986C13.1799 7.33673 13.3242 7.40479 13.4755 7.41923Z" fill="#212121"/>
</svg>
